<svg width="24" height="24" viewBox="0 0 24 24" fill="none" xmlns="http://www.w3.org/2000/svg">
<path fill-rule="evenodd" clip-rule="evenodd" d="M8.16015 0H15.84C18.2248 0 20.1601 1.93525 20.1601 4.32003C20.1601 5.99123 19.2097 7.44161 17.8203 8.15996C19.2097 8.87835 20.1601 10.3288 20.1601 12C20.1601 14.3848 18.2248 16.32 15.84 16.32C14.4835 16.32 13.2724 15.6938 12.4802 14.7149V19.68C12.4802 22.0648 10.5449 24 8.16015 24C5.77536 24 3.84009 22.0648 3.84009 19.68C3.84009 18.0088 4.79048 16.5583 6.17994 15.84C4.79048 15.1216 3.84009 13.6712 3.84009 12C3.84009 10.3288 4.79047 8.87835 6.17992 8.15996C4.79047 7.44161 3.84009 5.99123 3.84009 4.32003C3.84009 1.93525 5.77536 0 8.16015 0ZM4.80009 4.32003C4.80009 2.46545 6.30554 0.96 8.16015 0.96H11.52V7.67994H8.16015L8.14973 7.67995C6.2999 7.67433 4.80009 6.17112 4.80009 4.32003ZM11.5202 11.9543C11.52 11.9695 11.52 11.9847 11.52 12C11.52 12.0152 11.52 12.0304 11.5202 12.0457V15.3599H8.16013C6.30554 15.36 4.80009 13.8546 4.80009 12C4.80009 10.1488 6.29996 8.64553 8.14982 8.63996L8.16015 8.63997H11.52L11.5202 11.9543ZM12.4802 12.0402V11.9597C12.5017 10.1282 13.9914 8.64734 15.8263 8.63997H15.84C15.8435 8.63997 15.8469 8.63996 15.8504 8.63996C17.7002 8.64553 19.2001 10.1488 19.2001 12C19.2001 13.8546 17.6946 15.36 15.84 15.36C13.9989 15.36 12.5018 13.8763 12.4802 12.0402ZM13.1253 8.63997C12.8883 8.83174 12.672 9.04806 12.4802 9.28506V8.63997H13.1253ZM15.8504 7.67995C15.847 7.67994 15.8435 7.67994 15.84 7.67994C15.8348 7.67994 15.8295 7.67995 15.8243 7.67997H12.4802V0.96H15.84C17.6946 0.96 19.2001 2.46545 19.2001 4.32003C19.2001 6.17112 17.7003 7.67433 15.8504 7.67995ZM8.16015 16.3199C6.30554 16.3199 4.80009 17.8254 4.80009 19.68C4.80009 21.5345 6.30554 23.04 8.16015 23.04C10.0148 23.04 11.5202 21.5345 11.5202 19.68V16.3199H8.16015Z" fill="#EAECF0"/>
</svg>
