<?xml version="1.0" encoding="UTF-8"?>
<svg id="Capa_1" data-name="Capa 1" xmlns="http://www.w3.org/2000/svg" viewBox="0 0 171.73 163.1">
  <defs>
    <style>
      .cls-1 {
        fill: #fbf7f8;
      }

      .cls-2 {
        fill: #1d1d1b;
      }

      .cls-3 {
        fill: #010101;
      }
    </style>
  </defs>
  <path class="cls-1" d="m135.11,32.08c0,2.95,0,5.9-.01,8.85,0,2.3.01,4.59.02,6.89-.03,1.72.02,3.45-.13,5.17-.14,1.6.65,1.93,2.09,1.93,10.54-.04,21.07-.05,31.61-.03.95,0,2.11-.63,2.82.46.79,1.23-.74,1.6-1.09,2.42-1.75,4.05-3.79,7.93-5.99,11.77-2.78,4.85-5.1,9.95-7.65,14.92-5.06,9.85-10.14,19.69-15.21,29.53-5.42,10.51-10.81,21.03-16.27,31.52-2.89,5.56-5.89,11.07-8.87,16.59-.2.37-.15,1.14-.88.97-.81-.19-.44-.8-.44-1.36.05-9.77,0-19.55.1-29.32.02-1.67-.7-1.81-2.11-1.81-33.39,0-66.79-.02-100.18-.06-3.48,0-6.97-.13-10.45-.04-1.69.04-2.15-.44-2.14-2.1.07-24.48.08-48.95.05-73.43,0-6.3-.08-12.6-.34-18.9-.16-3.93.92-7.81,2.57-11.44,1.82-4,3.77-7.95,6.91-11.2C16.43,6.22,24.55,1.07,35.02.56c22.32-1.07,44.66-.25,67-.46,7.99-.08,15.97-.03,23.96,0,1.95,0,3.93.35,5.82.28,3.04-.11,3.52,1.09,3.26,3.6-.21,2.11.02,4.26.05,6.4,0,.5,0,1,.01,1.5,0,.81,0,1.62.01,2.43v1.02c0,2.3-.02,4.59-.03,6.89,0,.66,0,1.32,0,1.98,0,1.63,0,3.27,0,4.9,0,.34,0,.68,0,1.02,0,.32,0,.64,0,.96v1.02Z"/>
  <path class="cls-2" d="m107.76,48.06c-1.1,0-2.2.06-3.29-.01-1.72-.11-1.79-.12-2.36-1.88-.32-.99-.33-2.03-.34-3.06-.01-.78-.12-1.55-.23-2.32-.09-.61-.47-.99-.97-1.13-.71-.2-1.4-.44-2.1-.65-1.32-.4-2.56-.02-3.84.31-1.5.39-1.72,1.6-1.96,2.79-.26,1.3-.41,2.61-.17,3.95.12.67.28,1.34.59,1.92.49.92.7,1.93,1.1,2.87.42.98,1.04,1.85,1.77,2.6,1.45,1.49,2.97,2.92,4.45,4.37.3.3.57.67.72,1.02.48,1.11,1.42,1.82,2.16,2.7.92,1.09,1.95,2.1,2.96,3.12,1.06,1.07,1.86,2.33,2.68,3.57.54.82,1.11,1.63,1.62,2.47.96,1.57,1.56,3.26,1.88,5.08.53,3.03.37,6.08.45,9.12,0,.39,0,.77.18,1.17.15.32.16.77-.06,1.1-.21.31-.23.62-.23.96.02.95-.07,1.88-.35,2.81-.15.49-.42.85-.69,1.25-.68.98-1.34,1.98-1.96,3.01-.23.37-.49.69-.8.97-1.42,1.28-2.78,2.64-4.3,3.81-.23.17-.48.26-.75.32-.97.21-1.91.51-2.84.83-.24.08-.49.16-.74.16-2.38.02-4.77.1-7.13-.26-.9-.14-1.71-.54-2.49-.98-.32-.18-.63-.33-.99-.41-1.08-.26-1.8-.91-2.38-1.88-.5-.83-1.28-1.5-1.91-2.26-1.03-1.25-2.21-2.37-3.16-3.7-.4-.56-.56-1.22-.97-1.77-.84-1.13-1.48-2.36-1.68-3.77-.18-1.29-.35-2.59-.41-3.89-.05-1.05-.11-2.11.1-3.15.15-.76.55-1.25,1.32-1.44,1.83-.45,3.66-.67,5.56-.35,1.27.21,2.53.42,3.79.68.33.07.46.22.55.5.37,1.17.37,2.41.57,3.61.13.77.18,1.54.28,2.32.11.95.53,1.76,1.1,2.51.22.28.44.57.6.89.59,1.14,1.59,1.68,2.8,1.79.86.08,1.69-.25,2.37-.75,1.03-.76,2.04-1.58,2.55-2.83.55-1.36.79-2.79.5-4.2-.29-1.41-.93-2.72-1.54-4.04-.48-1.04-1.18-1.89-1.92-2.7-1.25-1.37-2.56-2.68-3.8-4.07-1.09-1.22-2.02-2.59-3.32-3.61-.29-.23-.26-.59-.48-.87-1.32-1.6-2.68-3.18-3.96-4.82-.99-1.28-2.01-2.56-2.75-3.97-.72-1.37-1.66-2.65-2.12-4.15-.25-.83-.71-1.57-1.03-2.37-.26-.64-.47-1.32-.52-2-.11-1.3-.5-2.57-.49-3.86.01-1.08-.21-2.16.02-3.26.27-1.25.74-2.45,1.03-3.69.43-1.85,1.37-3.47,2.39-5.05.57-.88,1.31-1.58,2.19-2.13.23-.14.44-.33.63-.52,1.12-1.08,2.52-1.73,3.9-2.34,1.04-.46,2.21-.66,3.37-.76,2.72-.24,5.43-.24,8.14.08.7.08,1.24.5,1.87.73,1.07.38,2.14.75,3.2,1.14,1.65.61,2.95,1.66,4.09,3.02,1.49,1.77,1.99,3.91,2.5,6.02.5,2.08.8,4.22.65,6.39-.05.72-.22,1.41-.34,2.12-.04.26-.22.41-.45.49-.47.18-.95.35-1.47.35-1.12,0-2.24,0-3.36,0,0,0,0,0,0,0Z"/>
  <path class="cls-3" d="m29.01,96v-63.17c.01-.68.15-1.75.88-2.64,1.32-1.62,4.04-2.06,6.66-.88,2.35,0,3.53,1.17,3.48,3.53-.3,4.55-.46,9.42-.41,14.57.04,3.66.18,7.16.41,10.5,1.59-.39,3.72-.76,6.26-.72,2.23.03,4.13.36,5.59.72.41-2.74.72-5.73.85-8.94.26-6.1-.17-11.54-.85-16.13-.02-.15-.2-1.56.88-2.64.59-.59,1.47-.88,2.64-.88,2.65-1.19,5.38-.73,6.67.9.7.89.83,1.94.82,2.63v63.17c0,2.35-1.17,3.53-3.48,3.53-2.62,1.18-5.34.74-6.66-.88-.73-.9-.87-1.97-.88-2.64v-28.06h-11.85v28.06c-.01.66-.15,1.75-.9,2.67-1.32,1.6-4.02,2.03-6.59.86-2.35,0-3.53-1.18-3.53-3.53Z"/>
</svg>